<?xml version="1.0" encoding="utf-8"?>
<!-- Svg Vector Icons : http://www.onlinewebfonts.com/icon -->
<!DOCTYPE svg PUBLIC "-//W3C//DTD SVG 1.1//EN" "http://www.w3.org/Graphics/SVG/1.1/DTD/svg11.dtd">
<svg version="1.1" xmlns="http://www.w3.org/2000/svg" xmlns:xlink="http://www.w3.org/1999/xlink" x="0px" y="0px" viewBox="0 0 1000 1000" enable-background="new 0 0 1000 1000" xml:space="preserve">
<metadata> Svg Vector Icons : http://www.onlinewebfonts.com/icon </metadata>
<g><path d="M745,640.8V10c-171.7,3.6-353.4,45.9-525,105c-0.1-1.2,0,525,0,525c-30.9-7.5-83.6-2.2-120.4,15.3C31.4,688-5.9,754,16.5,802.8c22.4,48.6,95.8,61.8,164,29.2c62.4-35.3,92-87,92-139.5l0.8-446.3c135.2-41.9,284-71.1,419.1-78.8v420c-39.4-7.3-85.1,3.5-122.7,21.6c-68.3,32.6-105.5,98.6-83.1,147.4c22.4,48.8,95.7,62,164,29.3C699.3,762.5,745,722,745,640.8z"/><path d="M867.5,806.3V683.8h-61.3v122.5H683.7v61.3h122.5V990h61.3V867.5H990v-61.3H867.5z"/></g>
</svg>