<?xml version="1.0" encoding="utf-8"?>
<!-- Svg Vector Icons : http://www.onlinewebfonts.com/icon -->
<!DOCTYPE svg PUBLIC "-//W3C//DTD SVG 1.1//EN" "http://www.w3.org/Graphics/SVG/1.1/DTD/svg11.dtd">
<svg version="1.1" xmlns="http://www.w3.org/2000/svg" xmlns:xlink="http://www.w3.org/1999/xlink" x="0px" y="0px" viewBox="0 0 1000 1000" enable-background="new 0 0 1000 1000" xml:space="preserve">
<metadata> Svg Vector Icons : http://www.onlinewebfonts.com/icon </metadata>
<g><g transform="translate(0.000000,401.000000) scale(0.100000,-0.100000)"><path d="M920.9,2102.5v-746.8h651h651v746.8v746.8h-651h-651V2102.5z"/><path d="M4329.3,379.1V-2091h651h651V379.1v2470.1h-651h-651V379.1z"/><path d="M7776,1633.3V417.4h651h651v1215.9v1215.9h-651h-651V1633.3z"/><path d="M231.5,758.2c-128.3-88.1-136-124.5-130.2-622.3c5.7-503.6,9.6-513.2,168.5-593.6c76.6-40.2,111.1-44,367.7-44h283.4v-2163.8v-2163.8h651h651v2161.9v2161.8l314,7.7c342.8,5.7,367.7,13.4,459.6,137.9c38.3,49.8,40.2,82.3,46,495.9c5.7,497.9-1.9,536.2-128.3,620.4l-65.1,44H1571.9H294.7L231.5,758.2z"/><path d="M7113.5-164.7c-32.5-15.3-80.4-55.5-105.3-90c-44.1-63.2-46-76.6-51.7-509.4c-5.7-413.6-3.8-448.1,32.6-518.9c67-130.2,149.4-157,495.9-157H7776v-1694.6v-1694.6h651h651v1692.7v1694.6l314,5.7c342.7,5.7,367.6,13.4,459.6,137.9c38.3,47.9,40.2,82.3,45.9,486.4c5.7,421.3,3.8,436.6-38.3,518.9c-84.2,162.8-7.6,155.1-1432.3,155.1C7417.9-139.8,7161.3-143.6,7113.5-164.7z"/><path d="M3659.1-2680.8c-36.4-17.2-86.2-61.3-109.2-97.7c-42.1-63.2-44-78.5-44-518.9c0-438.5,1.9-455.7,44-517c78.5-116.8,137.9-134,476.8-134h302.5v-440.4v-440.4h651h651v438.5v440.4l314,5.7c344.7,5.7,367.6,13.4,459.6,137.9c38.3,49.8,40.2,78.5,40.2,509.3c0,432.8-1.9,459.6-40.2,511.3c-21.1,28.7-68.9,72.8-103.4,97.7l-63.2,42.1H4982.3C3823.8-2646.3,3720.4-2648.2,3659.1-2680.8z"/></g></g>
</svg>