<?xml version="1.0" encoding="utf-8"?>
<!-- Svg Vector Icons : http://www.onlinewebfonts.com/icon -->
<!DOCTYPE svg PUBLIC "-//W3C//DTD SVG 1.1//EN" "http://www.w3.org/Graphics/SVG/1.1/DTD/svg11.dtd">
<svg version="1.1" xmlns="http://www.w3.org/2000/svg" xmlns:xlink="http://www.w3.org/1999/xlink" x="0px" y="0px" viewBox="0 0 1000 1000" enable-background="new 0 0 1000 1000" xml:space="preserve">
<metadata> Svg Vector Icons : http://www.onlinewebfonts.com/icon </metadata>
<g><path d="M500,990C229.4,990,10,770.6,10,500S229.4,10,500,10s490,219.4,490,490S770.6,990,500,990z M500,132.5c-202.9,0-367.5,164.6-367.5,367.5c0,202.9,164.6,367.5,367.5,367.5c202.9,0,367.5-164.6,367.5-367.5C867.5,297.1,702.9,132.5,500,132.5z M683.8,561.3H316.3c-33.8,0-61.3-27.4-61.3-61.3c0-33.8,27.4-61.3,61.3-61.3h367.5c33.9,0,61.3,27.4,61.3,61.3C745,533.9,717.6,561.3,683.8,561.3z"/></g>
</svg>