<?xml version="1.0" encoding="utf-8"?>
<!-- Svg Vector Icons : http://www.onlinewebfonts.com/icon -->
<!DOCTYPE svg PUBLIC "-//W3C//DTD SVG 1.1//EN" "http://www.w3.org/Graphics/SVG/1.1/DTD/svg11.dtd">
<svg version="1.1" xmlns="http://www.w3.org/2000/svg" xmlns:xlink="http://www.w3.org/1999/xlink" x="0px" y="0px" viewBox="0 0 1000 1000" enable-background="new 0 0 1000 1000" xml:space="preserve">
<metadata> Svg Vector Icons : http://www.onlinewebfonts.com/icon </metadata>
<g><g transform="translate(0.000000,81.000000) scale(0.100000,-0.100000)"><path d="M1386.2,403.8l-306.3-294V-4190v-4299.7l306.3-294l294-306.3h3307.5c2290.7,0,3332,36.7,3393.2,134.7c49,85.8-355.2,575.8-943.2,1163.8l-1029,1029l-551.3-196c-1102.5-392-2352,36.7-2952.3,1016.7c-232.7,367.5-294,637-294,1261.7c0,955.5,318.5,1555.8,1078,2058c686,453.3,1874.2,477.8,2572.5,36.8c980-600.2,1408.8-1849.8,1016.7-2952.3l-196-551.3l918.7-918.7l918.8-918.8v2878.7v2878.7L7474.5-723.3L6041.2,710H3860.8C1704.8,710,1680.2,710,1386.2,403.8z"/><path d="M4448.7-3320.2c-551.3-245-857.5-735-857.5-1372c0-514.5,61.3-649.3,404.2-992.3c575.8-588,1433.3-588,2009,0c343,343,404.2,477.8,404.2,1004.5c0,514.5-61.3,661.5-379.7,992.3C5624.7-3283.5,4902-3124.2,4448.7-3320.2z"/></g></g>
</svg>