<?xml version="1.0" encoding="utf-8"?>
<!-- Svg Vector Icons : http://www.onlinewebfonts.com/icon -->
<!DOCTYPE svg PUBLIC "-//W3C//DTD SVG 1.1//EN" "http://www.w3.org/Graphics/SVG/1.1/DTD/svg11.dtd">
<svg version="1.1" xmlns="http://www.w3.org/2000/svg" xmlns:xlink="http://www.w3.org/1999/xlink" x="0px" y="0px" viewBox="0 0 1000 1000" enable-background="new 0 0 1000 1000" xml:space="preserve">
<metadata> Svg Vector Icons : http://www.onlinewebfonts.com/icon </metadata>
<g><g transform="translate(0.000000,512.000000) scale(0.100000,-0.100000)"><path d="M5405.2,4978.5c-220.2-70.8-404-302.5-404-509.3V4406l-1966.3-3.8l-1968.2-5.7l-90-53.6c-151.2-88.1-227.8-220.2-254.6-442.3l-13.4-107.2h3679.8h3677.9l-5.7,388.7c-5.7,379.1-7.6,388.7-59.3,495.9c-63.2,128.3-153.2,212.5-300.6,281.4l-105.3,49.8l-1033.9,3.8C5566.1,5016.8,5523.9,5014.9,5405.2,4978.5z"/><path d="M103.8,659.2l5.7-2523.4l44-93.8c67-145.5,164.7-250.8,287.2-312.1l109.1-53.6l1929.9-5.7c1614-3.8,1928,0,1928,21.1c0,15.3,26.8,78.5,57.4,141.7c70.8,139.8,212.5,277.6,352.3,342.7c191.5,88.1,323.6,103.4,888.4,103.4h520.8v850.1c0,781.1,3.8,859.6,36.4,966.9c91.9,294.8,335,526.5,639.5,606.9c139.7,36.4,1016.6,36.4,1227.2-1.9c277.6-49.8,428.8-158.9,509.3-363.8l36.4-95.7v1470.4l1.9,1468.5H4388.6H100L103.8,659.2z"/><path d="M7000.1,79.1c-47.9-24.9-93.8-67-118.7-112.9c-42.1-74.7-42.1-80.4-42.1-1185.1v-1112.4l-836.7-5.8c-758.2-5.7-844.3-9.6-899.9-40.2c-103.4-55.5-124.4-122.5-70.8-235.5c17.2-38.3,465.3-490.1,1049.2-1064.5c1143-1120,1112.4-1097,1370.8-1097c258.5,0,229.7-23,1357.4,1085.6c551.4,541.8,1022.4,1018.5,1047.2,1060.7c55.5,91.9,57.4,141.7,7.7,203c-65.1,84.2-151.3,91.9-1003.2,91.9h-796.5v1104.7c0,1076-1.9,1106.6-40.2,1185.1c-28.7,59.3-61.3,91.9-120.6,120.6c-72.8,36.4-116.8,40.2-453.7,40.2C7116.9,117.4,7070.9,113.6,7000.1,79.1z"/></g></g>
</svg>