<?xml version="1.0" encoding="utf-8"?>
<!-- Svg Vector Icons : http://www.onlinewebfonts.com/icon -->
<!DOCTYPE svg PUBLIC "-//W3C//DTD SVG 1.1//EN" "http://www.w3.org/Graphics/SVG/1.1/DTD/svg11.dtd">
<svg version="1.1" xmlns="http://www.w3.org/2000/svg" xmlns:xlink="http://www.w3.org/1999/xlink" x="0px" y="0px" viewBox="0 0 1000 1000" enable-background="new 0 0 1000 1000" xml:space="preserve">
<metadata> Svg Vector Icons : http://www.onlinewebfonts.com/icon </metadata>
<g><g transform="translate(0.000000,512.000000) scale(0.100000,-0.100000)"><path d="M5403.9,4973.8c-223.9-70.8-403.9-302.4-403.9-518.7v-53.6l-1965.7-3.8l-1967.7-5.7l-90-53.6c-151.2-88.1-227.8-220.1-254.6-442.2L708.7,3789h3678.8h3676.9l-5.7,398.1c-5.7,388.5-7.6,398.1-57.4,493.8c-72.7,139.7-204.8,248.8-356,294.8c-116.8,36.4-176.1,38.3-1121.7,36.4C5576.1,5012.1,5520.6,5010.2,5403.9,4973.8z"/><path d="M103.8,655.7l5.7-2522.7l49.8-107.2c63.2-132.1,181.8-256.5,302.4-312l88-40.2l2530.4-5.7l2532.3-3.8v905.4c0,997.2,1.9,1024,120.6,1244.1c76.6,143.6,214.4,296.7,340.7,379c199.1,126.3,260.3,139.7,1468.1,289L8675,621.2v1276.7v1278.6H4387.5H100L103.8,655.7z"/><path d="M8033.8-77.4c-821.1-103.4-1502.5-189.5-1514-189.5c-61.3-3.8-201-126.3-245-216.3l-49.8-99.5v-1510.2c0-1429.8-1.9-1510.2-32.5-1496.8c-86.1,32.6-365.6,32.6-522.5,1.9c-809.6-164.6-901.5-886.2-145.5-1135c134-44,187.6-49.7,394.3-49.7s260.3,5.7,394.3,49.7c254.6,84.2,455.6,256.5,505.3,430.7c11.5,46,19.1,557,19.1,1441.3v1368.6l1259.5,157c691,86.1,1263.3,157,1272.9,157c7.7,0,13.4-392.4,13.4-872.8c0-823-1.9-872.8-32.5-859.4c-160.8,61.3-570.4,59.3-752.2-5.7c-237.4-84.2-405.8-208.7-484.3-357.9c-53.6-103.4-55.5-277.5-3.8-382.8c82.3-168.4,294.8-315.8,555.1-382.8c153.1-40.2,480.4-40.2,631.6-1.9c258.4,68.9,472.8,218.2,555.1,384.7c36.4,74.7,38.3,126.3,44,1789.6l3.8,1713.1l-42.1,84.2c-57.4,112.9-124.4,158.9-239.3,166.5C9568.9,110.2,8854.9,27.9,8033.8-77.4z"/></g></g>
</svg>