<?xml version="1.0" encoding="utf-8"?>
<!-- Svg Vector Icons : http://www.onlinewebfonts.com/icon -->
<!DOCTYPE svg PUBLIC "-//W3C//DTD SVG 1.1//EN" "http://www.w3.org/Graphics/SVG/1.1/DTD/svg11.dtd">
<svg version="1.1" xmlns="http://www.w3.org/2000/svg" xmlns:xlink="http://www.w3.org/1999/xlink" x="0px" y="0px" viewBox="0 0 1000 1000" enable-background="new 0 0 1000 1000" xml:space="preserve">
<metadata> Svg Vector Icons : http://www.onlinewebfonts.com/icon </metadata>
<g><g transform="translate(0.000000,512.000000) scale(0.100000,-0.100000)"><path d="M5406.3,4981.9c-224-70.8-404-302.6-404-518.9v-53.6l-1966.6-3.8l-1968.5-5.7l-90-53.6c-151.3-88.1-227.9-220.2-254.7-442.4l-13.4-107.2h3680.5H8068l-5.7,398.3c-5.7,388.7-7.6,398.3-57.4,494.1c-72.8,139.8-204.9,248.9-356.2,294.9c-116.8,36.4-176.2,38.3-1122.2,36.4C5578.6,5020.2,5523.1,5018.3,5406.3,4981.9z"/><path d="M103.8,661.8l5.7-2523.9l49.8-107.2c63.2-132.1,181.9-256.6,302.6-312.1c88.1-40.2,90-40.2,2012.6-45.9l1924.5-3.8l-5.7,153.2c-7.7,191.5,38.3,346.6,155.1,515.1c72.8,101.5,453.8,484.5,1842.2,1840.3c277.7,270,371.5,350.4,482.6,407.9c371.5,193.4,790.9,193.4,1160.4,0c103.4-55.5,201.1-134,390.6-319.8l254.7-247V1602v1581.7H4389.4H100L103.8,661.8z"/><path d="M7269.5,85.4c-53.6-19.2-120.7-47.9-145.5-65.1c-80.4-53.6-2041.3-1985.8-2083.4-2052.8c-80.4-134.1-30.6-239.4,134-277.7c51.7-11.5,400.2-21.1,877-21.1h788.9v-1110.7c0-1085.8,0-1114.5,40.2-1189.2c28.7-57.4,61.3-88.1,124.5-114.9c76.6-34.5,120.6-38.3,476.8-32.6c427,5.7,438.5,9.6,534.3,137.9c40.2,51.7,40.2,74.7,45.9,1179.6l3.8,1127.9l852.1,5.8c829.2,5.7,850.2,7.6,903.9,45.9c88.1,65.1,99.6,130.2,44,231.7c-30.6,53.6-419.4,448.1-1053.2,1070.4C8043.1-222.9,7786.5,16.5,7711.8,54.8C7577.8,119.9,7397.8,133.3,7269.5,85.4z"/></g></g>
</svg>