<?xml version="1.0" encoding="utf-8"?>
<!-- Svg Vector Icons : http://www.onlinewebfonts.com/icon -->
<!DOCTYPE svg PUBLIC "-//W3C//DTD SVG 1.1//EN" "http://www.w3.org/Graphics/SVG/1.1/DTD/svg11.dtd">
<svg version="1.1" xmlns="http://www.w3.org/2000/svg" xmlns:xlink="http://www.w3.org/1999/xlink" x="0px" y="0px" viewBox="0 0 1000 1000" enable-background="new 0 0 1000 1000" xml:space="preserve">
<metadata> Svg Vector Icons : http://www.onlinewebfonts.com/icon </metadata>
<g><g transform="translate(0.000000,512.000000) scale(0.100000,-0.100000)"><path d="M5431.3,4989.5c-244.9-76.5-432.5-302.3-432.5-526.2v-55.5l-1967.2-3.8l-1969.1-5.7l-91.9-57.4c-149.3-91.8-222-220.1-250.7-444l-13.4-101.4h3678h3676.1v361.7c0,451.6-17.2,516.7-172.2,675.5c-89.9,88-130.1,114.8-237.3,147.3c-126.3,38.3-168.4,40.2-1129,38.3C5693.5,5018.2,5509.8,5012.5,5431.3,4989.5z"/><path d="M103.8,662.8l5.7-2522.2l49.8-107.1c63.1-132.1,181.8-256.4,302.3-311.9c88-40.2,95.7-40.2,1697.4-45.9l1609.4-3.8l11.5,357.8c15.3,505.2,74.6,798,252.6,1236.2C4304.2-62.5,4841.9,544.2,5498.3,919.2c292.8,166.5,706.1,313.8,1075.5,382.7c223.9,40.2,872.6,45.9,1085,9.6c313.8-55.5,746.3-191.4,956.8-300.4l57.4-30.6v1102.3V3183H4386.5H100L103.8,662.8z"/><path d="M6242.7,712.6c-440.1-57.4-899.4-287-1224.7-610.4c-834.3-836.3-834.3-2187.3,0-3023.5c623.8-623.8,1548.1-798,2371-445.9l158.8,68.9l711.9-710c482.2-482.2,732.9-719.5,780.8-740.6c177.9-72.7,283.2-23,574.1,269.8c283.2,287.1,327.2,382.7,254.5,558.8c-21.1,47.8-258.3,300.4-740.6,782.7l-711.9,711.9l61.2,130.1c206.7,449.7,246.9,993.2,109.1,1469.7C8294.1,195.9,7299,848.4,6242.7,712.6z M6922.1,73.4c426.7-118.7,794.1-424.8,983.6-819c118.6-244.9,143.5-365.5,143.5-664c0-298.5-24.9-419.1-141.6-662.1c-191.4-398-564.5-706.1-995.1-822.9c-172.2-47.8-593.2-47.8-765.4,0c-530.1,143.5-956.8,570.3-1104.2,1102.2c-47.8,174.2-45.9,593.2,1.9,765.4C5192.1-496.9,5609.3-72,6112.6,61.9c76.5,21,160.7,42.1,187.5,47.8C6397.7,128.9,6809.1,104,6922.1,73.4z"/></g></g>
</svg>