<?xml version="1.0" encoding="utf-8"?>
<!-- Svg Vector Icons : http://www.onlinewebfonts.com/icon -->
<!DOCTYPE svg PUBLIC "-//W3C//DTD SVG 1.1//EN" "http://www.w3.org/Graphics/SVG/1.1/DTD/svg11.dtd">
<svg version="1.1" xmlns="http://www.w3.org/2000/svg" xmlns:xlink="http://www.w3.org/1999/xlink" x="0px" y="0px" viewBox="0 0 1000 1000" enable-background="new 0 0 1000 1000" xml:space="preserve">
<metadata> Svg Vector Icons : http://www.onlinewebfonts.com/icon </metadata>
<g><g transform="translate(0.000000,511.000000) scale(0.100000,-0.100000)"><path d="M5253.1,4151.7c-104.5-39.2-259.1-165.4-324.4-267.8c-28.3-45.7-113.2-209-191.6-365.7l-141.5-283l-1817.8-10.9l-1817.8-10.9l-124.1-50.1c-381-154.6-642.2-463.7-711.9-842.5c-17.4-87.1-24-931.8-24-2697.4c0-2828-2.2-2738.7,135-3002.1c137.2-263.4,431.1-492,714.1-557.3c135-32.7,7963.6-32.7,8098.6,0c391.9,89.3,731.5,439.8,816.4,840.4c47.9,219.9,47.9,5235.8,0,5455.7c-84.9,398.4-400.6,725-809.9,831.6c-78.4,19.6-224.2,32.7-389.7,32.7h-265.6l-8.7,267.8c-8.7,232.9-17.4,278.7-67.5,376.6c-63.1,124.1-156.8,213.3-287.4,272.1c-80.6,37-174.2,41.4-1393.3,39.2C5605.8,4180,5318.4,4173.5,5253.1,4151.7z M8930.1,2582.1c69.7-19.6,135-61,187.2-113.2c161.1-169.8,148,71.8,148-2841.1v-2619l-65.3-113.2c-45.7-78.4-95.8-132.8-167.6-174.2l-104.5-61H4998.4H1068.8l-100.1,58.8c-54.4,32.7-128.4,100.1-163.3,150.2l-63.1,91.4l-6.5,2625.5c-4.4,2364.3-2.2,2634.2,30.5,2717c43.5,119.7,202.5,259.1,320,287.4c54.4,10.9,1637.1,19.6,3914.3,21.8C8303.1,2614.7,8836.5,2610.4,8930.1,2582.1z"/><path d="M3792.3,1167c-248.2-87.1-372.3-407.1-250.4-648.8c28.3-52.3,222.1-267.8,457.2-505.1l411.5-415.8l-413.6-411.4c-248.2-246-431-448.5-457.2-502.9c-78.4-161.1-45.7-400.6,71.8-526.8c78.4-84.9,211.2-141.5,330.9-141.5c211.2-2.2,250.4,23.9,720.6,487.6l435.4,433.2l396.2-402.8c219.9-224.2,431.1-428.9,472.4-457.2c217.7-145.9,542.1-54.4,666.2,191.6c61,117.6,61,304.8,2.2,420.2c-24,45.7-230.8,270-459.4,498.6l-415.8,411.4l433.2,437.6c459.3,463.7,489.8,507.3,487.6,707.5c-4.4,320-328.7,537.7-631.3,424.5c-84.9-30.5-187.2-119.7-533.4-463.7l-431.1-426.7L4645.7,712c-359.2,354.9-459.4,441.9-531.2,461.5C3999.1,1206.2,3899,1206.2,3792.3,1167z"/></g></g>
</svg>