<?xml version="1.0" encoding="utf-8"?>
<!-- Svg Vector Icons : http://www.onlinewebfonts.com/icon -->
<!DOCTYPE svg PUBLIC "-//W3C//DTD SVG 1.1//EN" "http://www.w3.org/Graphics/SVG/1.1/DTD/svg11.dtd">
<svg version="1.1" xmlns="http://www.w3.org/2000/svg" xmlns:xlink="http://www.w3.org/1999/xlink" x="0px" y="0px" viewBox="0 0 1000 1000" enable-background="new 0 0 1000 1000" xml:space="preserve">
<metadata> Svg Vector Icons : http://www.onlinewebfonts.com/icon </metadata>
<g><g transform="translate(0.000000,511.000000) scale(0.100000,-0.100000)"><path d="M5243.9,4146.3c-172.1-61-302.7-217.8-485.6-583.6L4597.1,3236l-1818.4-10.9l-1818.4-10.9l-124.1-50.1C455,3009.5,193.6,2700.3,124,2321.3c-17.4-87.1-24-932.1-24-2698.3c0-2822.4-2.2-2730.9,132.8-2998.8c130.7-261.3,431.2-496.5,716.5-561.9c65.3-15.2,1415.6-24,4050.7-24c4298.9,0,4044.1-6.5,4307.6,122c156.8,76.2,368.1,289.7,457.3,459.5c137.2,263.5,135,172,135,3011.9c0,2158.2-6.5,2604.6-32.7,2728.8c-84.9,398.5-400.7,725.2-810.1,831.9c-78.4,19.6-224.3,32.7-389.8,32.7h-265.7L8393,3493c-8.7,233-17.4,278.8-67.5,376.8c-63.2,124.1-156.8,213.4-287.5,272.2c-80.6,37-174.2,41.4-1393.8,39.2C5531.4,4181.2,5324.5,4174.6,5243.9,4146.3z M8909.1,2591.4c115.4-28.3,259.2-145.9,315.8-261.3c43.6-82.8,43.6-130.7,39.2-2724.4l-6.5-2641.6l-63.2-93.6c-34.8-52.3-108.9-119.8-163.3-152.4l-100.2-58.8H5000H1069.1l-100.2,58.8c-54.4,32.7-128.5,100.2-163.3,150.3l-63.2,91.5L735.9-414c-6.5,2924.8-15.2,2726.6,145.9,2885.6c45.7,43.6,126.3,93.7,178.6,111.1c80.6,24,747,30.5,3924.3,30.5C7709.2,2615.3,8841.6,2608.8,8909.1,2591.4z"/><path d="M4949.9,1384.9c-108.9-37-185.1-108.9-235.2-217.8c-34.8-76.2-41.4-148.1-41.4-614.1V28.1l-548.8-8.7c-461.7-4.4-561.9-13.1-616.3-43.6c-222.1-122-294-396.4-156.8-603.3c104.5-159,128.5-163.3,755.7-176.4l555.3-10.9l10.9-555.3c13.1-614.1,17.4-642.5,156.8-749.2c213.4-159,496.5-100.2,622.8,128.5c30.5,54.5,39.2,159,47.9,620.7l10.9,555.3l566.2,10.9c385.5,6.5,581.5,19.6,612,37c209.1,119.8,272.2,429,124.1,611.9C6681.2,8.5,6666,12.9,6051.9,19.4l-551,8.7v531.4c0,485.6-4.4,540.1-43.6,616.3c-52.3,104.5-152.4,189.5-257,220C5095.8,1424.1,5052.3,1421.9,4949.9,1384.9z"/></g></g>
</svg>