<?xml version="1.0" encoding="utf-8"?>
<!-- Svg Vector Icons : http://www.onlinewebfonts.com/icon -->
<!DOCTYPE svg PUBLIC "-//W3C//DTD SVG 1.1//EN" "http://www.w3.org/Graphics/SVG/1.1/DTD/svg11.dtd">
<svg version="1.1" xmlns="http://www.w3.org/2000/svg" xmlns:xlink="http://www.w3.org/1999/xlink" x="0px" y="0px" viewBox="0 0 1000 1000" enable-background="new 0 0 1000 1000" xml:space="preserve">
<metadata> Svg Vector Icons : http://www.onlinewebfonts.com/icon </metadata>
<g><g transform="translate(0.000000,511.000000) scale(0.100000,-0.100000)"><path d="M4451,2193.4L3040.8-627.1h814.7c762.3,0,814.7-1.9,814.7-33c0-19.4-122.2-954.4-271.6-2079.5C4247.4-3862.8,4127.1-4786.1,4131-4790c3.9-2,642.1,1264.7,1418,2816.6L6959.2,847.1h-814.7c-762.4,0-814.7,1.9-814.7,34.9c0,17.5,122.2,952.5,271.6,2077.6C5752.6,4082.8,5872.9,5006.1,5869,5010C5865.2,5011.9,5227,3745.2,4451,2193.4z M4959.3,1477.6c-73.7-543.1-131.9-1004.8-133.8-1022.3c0-33,46.6-34.9,708-34.9c389.9,0,708-5.8,706.1-13.6c0-9.7-300.7-613-667.3-1344.3c-370.5-735.2-665.4-1297.7-659.5-1260.9c25.2,166.8,261.9,1951.5,261.9,1972.8c0,19.4-145.5,25.2-708,25.2c-389.9,0-708,3.9-708,9.7c0,13.6,1326.8,2665.3,1330.7,2661.5C5091.2,2468.8,5033,2022.7,4959.3,1477.6z"/></g></g>
</svg>