<?xml version="1.0" encoding="utf-8"?>
<!-- Svg Vector Icons : http://www.onlinewebfonts.com/icon -->
<!DOCTYPE svg PUBLIC "-//W3C//DTD SVG 1.1//EN" "http://www.w3.org/Graphics/SVG/1.1/DTD/svg11.dtd">
<svg version="1.1" xmlns="http://www.w3.org/2000/svg" xmlns:xlink="http://www.w3.org/1999/xlink" x="0px" y="0px" viewBox="0 0 1000 1000" enable-background="new 0 0 1000 1000" xml:space="preserve">
<metadata> Svg Vector Icons : http://www.onlinewebfonts.com/icon </metadata>
<g><g transform="translate(0.000000,412.000000) scale(0.100000,-0.100000)"><path d="M473.2,3033.3c-5.7-13.4-7.7-260.3-5.7-549.3l5.7-526.4l4522.9-5.7l4521-3.8v258.4v258.4H7099.7H4680.3l-273.7,296.7L4131,3058.2H2306.9C854.1,3058.2,479,3052.4,473.2,3033.3z"/><path d="M100-1416.9c0-2553.4,3.8-2938.1,28.7-3022.3c38.3-130.2,168.4-273.7,300.5-333l101.4-45.9H5000h4469.3l101.4,45.9c132.1,59.3,262.2,202.9,300.5,333c24.9,84.2,28.7,468.9,28.7,3022.3v2924.7H5000H100V-1416.9z M6473.8-882.9v-1565.7l-44-65.1c-61.3-91.9-181.8-176.1-312-220.1c-170.4-55.5-568.5-51.7-717.8,7.6c-218.2,86.1-329.2,204.8-329.2,350.3c0,141.7,149.3,289,359.8,354.1c147.4,47.9,453.6,57.4,599.1,19.1c67-17.2,126.3-30.6,130.1-30.6c3.8,0,7.7,306.3,7.7,679.5s-3.8,679.5-11.5,679.5c-5.8,0-319.7-212.5-698.6-472.8l-687.2-472.8v-958.9c0-1079.5,5.7-1035.5-147.4-1150.3c-134-101.5-275.6-145.5-503.4-157c-231.6-9.6-390.5,21.1-545.5,109.1c-285.2,160.8-285.2,417.3,0,578c195.2,109.1,524.5,145.5,761.8,84.2c61.3-15.3,114.8-28.7,118.7-28.7c5.7,0,11.5,553.2,13.4,1226.9l5.7,1228.8L5468.9-2.4c547.4,377.1,997.2,685.2,1001.1,687.1C6471.9,684.7,6473.8-19.6,6473.8-882.9z"/></g></g>
</svg>