<?xml version="1.0" encoding="utf-8"?>
<!-- Svg Vector Icons : http://www.onlinewebfonts.com/icon -->
<!DOCTYPE svg PUBLIC "-//W3C//DTD SVG 1.1//EN" "http://www.w3.org/Graphics/SVG/1.1/DTD/svg11.dtd">
<svg version="1.1" xmlns="http://www.w3.org/2000/svg" xmlns:xlink="http://www.w3.org/1999/xlink" x="0px" y="0px" viewBox="0 0 1000 1000" enable-background="new 0 0 1000 1000" xml:space="preserve">
<metadata> Svg Vector Icons : http://www.onlinewebfonts.com/icon </metadata>
<g><path d="M255,132.5c-67.4,0-122.5,55.1-122.5,122.5S187.6,377.5,255,377.5c67.4,0,122.5-55.1,122.5-122.5S322.4,132.5,255,132.5z M255,316.3c-33.7,0-61.3-27.6-61.3-61.3s27.6-61.3,61.3-61.3s61.3,27.6,61.3,61.3S288.7,316.3,255,316.3z M867.5,10h-735C65.1,10,10,65.1,10,132.5v735C10,934.9,65.1,990,132.5,990h735c67.4,0,122.5-55.1,122.5-122.5v-735C990,65.1,934.9,10,867.5,10z M132.5,928.8c-33.7,0-61.3-27.6-61.3-61.3v-29.1l243.5-218.2l307.8,308.5H132.5z M928.8,867.5c0,33.7-27.6,61.3-61.3,61.3H709L483.9,699.8L745,438.8l183.8,183.8V867.5z M928.8,534.5L745,346.9L440.3,656.2l-124-125.6L71.3,755V132.5c0-33.7,27.6-61.3,61.3-61.3h735c33.7,0,61.3,27.6,61.3,61.3V534.5z"/></g>
</svg>