<?xml version="1.0" encoding="iso-8859-1"?>
<!-- Generator: Adobe Illustrator 19.0.0, SVG Export Plug-In . SVG Version: 6.00 Build 0)  -->
<svg version="1.1" id="Layer_1" xmlns="http://www.w3.org/2000/svg" xmlns:xlink="http://www.w3.org/1999/xlink" x="0px" y="0px"
	 viewBox="0 0 503.588 503.588" style="enable-background:new 0 0 503.588 503.588;" xml:space="preserve">
<g>
	<g>
		<path d="M306.876,32.352H11.804C5.288,32.352,0,37.636,0,44.152v15.74c0,6.52,5.288,11.804,11.804,11.804h295.072
			c6.524,0,11.804-5.284,11.804-11.804v-15.74h0C318.68,37.636,313.4,32.352,306.876,32.352z"/>
	</g>
</g>
<g>
	<g>
		<path d="M306.876,107.1H11.804C5.288,107.1,0,112.384,0,118.904v15.74c0,6.516,5.288,11.8,11.804,11.8h295.072
			c6.524,0,11.804-5.284,11.804-11.8v-15.74h0C318.68,112.384,313.4,107.1,306.876,107.1z"/>
	</g>
</g>
<g>
	<g>
		<path d="M306.876,181.856H11.804c-6.516,0-11.804,5.28-11.804,11.8v15.736c0,6.516,5.288,11.8,11.804,11.8h295.072
			c6.524,0,11.804-5.284,11.804-11.8v-15.736h0C318.68,187.136,313.4,181.856,306.876,181.856z"/>
	</g>
</g>
<g>
	<g>
		<path d="M306.876,256.604H11.804C5.288,256.604,0,261.896,0,268.408v15.736c0,6.52,5.288,11.804,11.804,11.804h295.072
			c6.524,0,11.804-5.284,11.804-11.804v-15.736h0C318.68,261.896,313.4,256.604,306.876,256.604z"/>
	</g>
</g>
<g>
	<g>
		<path d="M357.788,34.548c-0.624,0-1.072,0.172-1.592,0.436c-3.524,0.78-6.04,3.916-6.04,7.668V371.72
			c-11.804-11.416-26.172-18.6-43.08-18.6c-32.564,0-59.132,26.492-59.132,59.06c0,32.56,26.444,59.056,59.004,59.056
			c32.572,0,59.204-26.496,59.204-59.056c0-2.268-0.264-4.512-0.264-6.724V103.432c70.82,4.096,129.836,64.244,129.836,137.612
			v2.016c0,2.168,1.756,3.932,3.928,3.932c2.18,0,3.936-1.764,3.936-3.932v-62.792C503.592,99.928,438.132,34.548,357.788,34.548z"
			/>
	</g>
</g>
<g>
</g>
<g>
</g>
<g>
</g>
<g>
</g>
<g>
</g>
<g>
</g>
<g>
</g>
<g>
</g>
<g>
</g>
<g>
</g>
<g>
</g>
<g>
</g>
<g>
</g>
<g>
</g>
<g>
</g>
</svg>
