<?xml version="1.0" encoding="UTF-8" standalone="no"?>
<!-- Generator: Adobe Illustrator 19.0.0, SVG Export Plug-In . SVG Version: 6.00 Build 0)  -->

<svg
   xmlns:dc="http://purl.org/dc/elements/1.1/"
   xmlns:cc="http://creativecommons.org/ns#"
   xmlns:rdf="http://www.w3.org/1999/02/22-rdf-syntax-ns#"
   xmlns:svg="http://www.w3.org/2000/svg"
   xmlns="http://www.w3.org/2000/svg"
   xmlns:sodipodi="http://sodipodi.sourceforge.net/DTD/sodipodi-0.dtd"
   xmlns:inkscape="http://www.inkscape.org/namespaces/inkscape"
   version="1.1"
   id="Layer_1"
   x="0px"
   y="0px"
   viewBox="0 0 494.728 494.728"
   style="enable-background:new 0 0 494.728 494.728;"
   xml:space="preserve"
   sodipodi:docname="radio.svg"
   inkscape:version="0.92.4 (5da689c313, 2019-01-14)"><metadata
   id="metadata4070"><rdf:RDF><cc:Work
       rdf:about=""><dc:format>image/svg+xml</dc:format><dc:type
         rdf:resource="http://purl.org/dc/dcmitype/StillImage" /></cc:Work></rdf:RDF></metadata><defs
   id="defs4068" /><sodipodi:namedview
   pagecolor="#ffffff"
   bordercolor="#666666"
   borderopacity="1"
   objecttolerance="10"
   gridtolerance="10"
   guidetolerance="10"
   inkscape:pageopacity="0"
   inkscape:pageshadow="2"
   inkscape:window-width="1312"
   inkscape:window-height="816"
   id="namedview4066"
   showgrid="false"
   inkscape:zoom="0.47702981"
   inkscape:cx="247.364"
   inkscape:cy="247.364"
   inkscape:window-x="2278"
   inkscape:window-y="87"
   inkscape:window-maximized="0"
   inkscape:current-layer="Layer_1" />
<g
   id="g3979">
	<path
   style="fill:#000000;"
   d="M135.364,215.528v24h-72v-11.2c0-7.2,5.6-12.8,12.8-12.8h11.2v16h16v-16H135.364z"
   id="path3969" />
	<path
   style="fill:#000000;"
   d="M183.364,255.528v24h-107.2c-7.2,0-12.8-5.6-12.8-12.8v-11.2H183.364z"
   id="path3971" />
	<path
   style="fill:#000000;"
   d="M431.364,255.528v11.2c0,7.2-5.6,12.8-12.8,12.8h-219.2v-24h32v16h16v-16H431.364z"
   id="path3973" />
	<path
   style="fill:#000000;"
   d="M431.364,228.328v11.2h-88v-24h32v8h16v-8h27.2C425.764,215.528,431.364,221.128,431.364,228.328z"
   id="path3975" />
	<polygon
   style="fill:#000000;"
   points="327.364,215.528 327.364,239.528 247.364,239.528 247.364,215.528 279.364,215.528    279.364,231.528 295.364,231.528 295.364,215.528  "
   id="polygon3977" />
</g>
<path
   style="fill:#966941;"
   d="M479.364,192.328v253.6c0,13.6-10.4,24-24,24.8v16c0,4-4,8-8,8h-48c-4,0-8-4-8-8v-16h-288v16  c0,4-3.2,8-8,8h-48c-4.8,0-8-4-8-8v-16c-13.6-0.8-24-11.2-24-24.8v-253.6c0-13.6,11.2-24.8,24.8-24.8h37.6l318.4-124l-4-8  c-2.4-4,0-8.8,3.2-10.4l48-24c4-2.4,8.8-0.8,10.4,3.2l16,32c2.4,4,0,8.8-3.2,10.4l-48,24c-0.8,0.8-1.6,0.8-3.2,0.8  c-3.2,0-5.6-1.6-7.2-4.8l-4.8-9.6l-281.6,110.4h332.8C468.164,167.528,479.364,178.728,479.364,192.328z M463.364,446.728v-254.4  c0-4.8-4-8.8-8.8-8.8h-414.4c-4.8,0-8.8,4-8.8,8.8v253.6c0,5.6,4,9.6,8.8,9.6h7.2h48h304h48h7.2  C459.364,455.528,463.364,451.528,463.364,446.728z M452.964,36.328l-8.8-17.6l-33.6,16.8l8.8,17.6L452.964,36.328z   M439.364,479.528v-8h-32v8H439.364z M87.364,479.528v-8h-32v8H87.364z"
   id="path3981" />
<path
   style="fill:#B37D4D;"
   d="M463.364,192.328v253.6c0,4.8-4,8.8-8.8,8.8h-7.2h-48h-304h-48h-7.2c-4.8,0.8-8.8-3.2-8.8-8v-254.4  c0-4.8,4-8.8,8.8-8.8h413.6C459.364,183.528,463.364,187.528,463.364,192.328z M447.364,266.728v-38.4c0-16-12.8-28.8-28.8-28.8  h-342.4c-16,0-28.8,12.8-28.8,28.8v38.4c0,16,12.8,28.8,28.8,28.8h342.4C434.564,295.528,447.364,282.728,447.364,266.728z   M431.364,375.528c0-40-32-72-72-72s-72,32-72,72s32,72,72,72S431.364,415.528,431.364,375.528z M263.364,431.528v-112c0-4-4-8-8-8  h-200c-4.8,0-8,4-8,8v112c0,4,3.2,8,8,8h200C259.364,439.528,263.364,435.528,263.364,431.528z"
   id="path3983" />
<rect
   x="412.374"
   y="26.071"
   transform="matrix(-0.8936 0.4488 -0.4488 -0.8936 832.6696 -125.2111)"
   style="fill:#000000;"
   width="37.599"
   height="19.999"
   id="rect3985" />
<path
   style="fill:#966941;"
   d="M447.364,228.328v38.4c0,16-12.8,28.8-28.8,28.8h-342.4c-16,0-28.8-12.8-28.8-28.8v-38.4  c0-16,12.8-28.8,28.8-28.8h342.4C434.564,199.528,447.364,212.328,447.364,228.328z M431.364,266.728v-11.2h-184v16h-16v-16h-32v24  h219.2C425.764,279.528,431.364,273.928,431.364,266.728z M431.364,239.528v-11.2c0-7.2-5.6-12.8-12.8-12.8h-27.2v8h-16v-8h-32v24  H431.364z M327.364,239.528v-24h-32v16h-16v-16h-32v24H327.364z M231.364,239.528v-24h-32v24H231.364z M183.364,279.528v-24h-120  v11.2c0,7.2,5.6,12.8,12.8,12.8H183.364z M183.364,239.528v-24h-32v24H183.364z M135.364,239.528v-24h-32v16h-16v-16h-11.2  c-7.2,0-12.8,5.6-12.8,12.8v11.2H135.364z"
   id="path3987" />
<rect
   x="407.364"
   y="471.528"
   style="fill:#000000;"
   width="32"
   height="8"
   id="rect3989" />
<path
   style="fill:#966941;"
   d="M359.364,303.528c40,0,72,32,72,72s-32,72-72,72s-72-32-72-72S319.364,303.528,359.364,303.528z   M415.364,375.528c0-31.2-24.8-56-56-56s-56,24.8-56,56s24.8,56,56,56S415.364,406.728,415.364,375.528z"
   id="path3991" />
<path
   style="fill:#000000;"
   d="M359.364,319.528c31.2,0,56,24.8,56,56s-24.8,56-56,56s-56-24.8-56-56  S328.164,319.528,359.364,319.528z M399.364,375.528c0-19.2-13.6-35.2-32-39.2v-8.8h-16v8.8c-18.4,4-32,20-32,39.2  c0,22.4,17.6,40,40,40S399.364,397.928,399.364,375.528z"
   id="path3993" />
<g
   id="g3999">
	<path
   style="fill:#966941;"
   d="M367.364,336.328c18.4,4,32,20,32,39.2c0,22.4-17.6,40-40,40s-40-17.6-40-40   c0-19.2,13.6-35.2,32-39.2v-8.8h16V336.328z M359.364,399.528c13.6,0,24-10.4,24-24c0-10.4-6.4-19.2-16-22.4v14.4h-16v-14.4   c-9.6,3.2-16,12-16,22.4C335.364,389.128,345.764,399.528,359.364,399.528z"
   id="path3995" />
	<path
   style="fill:#966941;"
   d="M263.364,319.528v112c0,4-4,8-8,8h-200c-4.8,0-8-4-8-8v-112c0-4,3.2-8,8-8h200   C259.364,311.528,263.364,315.528,263.364,319.528z M247.364,423.528v-96h-184v96H247.364z"
   id="path3997" />
</g>
<path
   style="fill:#000000;"
   d="M247.364,327.528v96h-184v-96H247.364z M239.364,415.528v-16h-24v16H239.364z M239.364,383.528v-16  h-24v16H239.364z M239.364,351.528v-16h-24v16H239.364z M191.364,415.528v-16h-24v16H191.364z M191.364,383.528v-16h-24v16H191.364z   M191.364,351.528v-16h-24v16H191.364z M143.364,415.528v-16h-24v16H143.364z M143.364,383.528v-16h-24v16H143.364z   M143.364,351.528v-16h-24v16H143.364z M95.364,415.528v-16h-24v16H95.364z M95.364,383.528v-16h-24v16H95.364z M95.364,351.528v-16  h-24v16H95.364z"
   id="path4001" />
<g
   id="g4027">
	<rect
   x="215.364"
   y="399.528"
   style="fill:#966941;"
   width="24"
   height="16"
   id="rect4003" />
	<rect
   x="215.364"
   y="367.528"
   style="fill:#966941;"
   width="24"
   height="16"
   id="rect4005" />
	<rect
   x="215.364"
   y="335.528"
   style="fill:#966941;"
   width="24"
   height="16"
   id="rect4007" />
	<rect
   x="167.364"
   y="399.528"
   style="fill:#966941;"
   width="24"
   height="16"
   id="rect4009" />
	<rect
   x="167.364"
   y="367.528"
   style="fill:#966941;"
   width="24"
   height="16"
   id="rect4011" />
	<rect
   x="167.364"
   y="335.528"
   style="fill:#966941;"
   width="24"
   height="16"
   id="rect4013" />
	<rect
   x="119.364"
   y="399.528"
   style="fill:#966941;"
   width="24"
   height="16"
   id="rect4015" />
	<rect
   x="119.364"
   y="367.528"
   style="fill:#966941;"
   width="24"
   height="16"
   id="rect4017" />
	<rect
   x="119.364"
   y="335.528"
   style="fill:#966941;"
   width="24"
   height="16"
   id="rect4019" />
	<rect
   x="71.364"
   y="399.528"
   style="fill:#966941;"
   width="24"
   height="16"
   id="rect4021" />
	<rect
   x="71.364"
   y="367.528"
   style="fill:#966941;"
   width="24"
   height="16"
   id="rect4023" />
	<rect
   x="71.364"
   y="335.528"
   style="fill:#966941;"
   width="24"
   height="16"
   id="rect4025" />
</g>
<rect
   x="55.364"
   y="471.528"
   style="fill:#000000;"
   width="32"
   height="8"
   id="rect4029" />
<path
   style="fill:#000000;"
   d="M239.364,327.528v8v11.2v4.8l0,0c-0.8,5.6-1.6,11.2-3.2,16h3.2v16h-11.2c-8.8,13.6-21.6,24-36.8,28.8  v3.2h-20.8h-3.2h-24h-24h-24h-24h-8v8h184v-96H239.364z M239.364,415.528h-24v-16h24V415.528z"
   id="path4031" />
<path
   style="fill:#E4C6A1;"
   d="M440.964,191.528h-387.2c-8,0-14.4,6.4-14.4,14.4v226.4c0,8,6.4,14.4,14.4,14.4h305.6  c-40,0-72-32-72-72s32-72,72-72s72,32,72,72s-32,72-72,72h81.6c8,0,14.4-6.4,14.4-14.4v-226.4  C455.364,197.928,448.964,191.528,440.964,191.528z M263.364,431.528c0,4-4,8-8,8h-200c-4,0-8-4-8-8v-112c0-4,4-8,8-8h200  c4,0,8,4,8,8V431.528z M447.364,266.728c0,16-12.8,28.8-28.8,28.8h-342.4c-16,0-28.8-12.8-28.8-28.8v-38.4c0-16,12.8-28.8,28.8-28.8  h342.4c16,0,28.8,12.8,28.8,28.8V266.728z"
   id="path4033" />
<g
   id="g4035">
</g>
<g
   id="g4037">
</g>
<g
   id="g4039">
</g>
<g
   id="g4041">
</g>
<g
   id="g4043">
</g>
<g
   id="g4045">
</g>
<g
   id="g4047">
</g>
<g
   id="g4049">
</g>
<g
   id="g4051">
</g>
<g
   id="g4053">
</g>
<g
   id="g4055">
</g>
<g
   id="g4057">
</g>
<g
   id="g4059">
</g>
<g
   id="g4061">
</g>
<g
   id="g4063">
</g>
<path
   style="fill:#000000;stroke-width:2.09630513"
   d="m 151.77249,227.23947 v -10.48153 h 15.72229 15.72228 v 10.48153 10.48153 h -15.72228 -15.72229 z"
   id="path4072"
   inkscape:connector-curvature="0" /><path
   style="fill:#000000;stroke-width:2.09630513"
   d="m 199.9875,227.23947 v -10.48153 h 15.72229 15.72229 V 227.23947 237.721 H 215.70979 199.9875 Z"
   id="path4074"
   inkscape:connector-curvature="0" /><path
   style="fill:#000000;stroke-width:2.09630513"
   d="m 349.4849,396.06821 c -13.17651,-5.73085 -17.17147,-23.37945 -7.81046,-34.50438 6.82365,-8.10943 9.24703,-8.15158 9.24703,-0.16084 0,5.93954 0.46584,6.28892 8.38522,6.28892 7.91937,0 8.38522,-0.34938 8.38522,-6.28892 0,-7.99074 2.42338,-7.94859 9.24702,0.16084 9.5241,11.31875 5.31683,28.91608 -8.27077,34.59334 -8.67727,3.62559 -10.66385,3.61638 -19.18326,-0.089 z"
   id="path4076"
   inkscape:connector-curvature="0" /></svg>