<?xml version="1.0" encoding="windows-1252"?>
<!-- Generator: Adobe Illustrator 18.0.0, SVG Export Plug-In . SVG Version: 6.00 Build 0)  -->
<!DOCTYPE svg PUBLIC "-//W3C//DTD SVG 1.1//EN" "http://www.w3.org/Graphics/SVG/1.1/DTD/svg11.dtd">
<svg version="1.1" id="Capa_1" xmlns="http://www.w3.org/2000/svg" xmlns:xlink="http://www.w3.org/1999/xlink" x="0px" y="0px" viewBox="0 0 512 512" style="enable-background:new 0 0 512 512;" xml:space="preserve">
<g>
	<path style="fill:#566E7F;" d="M0,480l0-288c0-8.837,7.163-16,16-16h480c8.837,0,16,7.163,16,16v288c0,8.837-7.163,16-16,16H16   C7.163,496,0,488.837,0,480z"/>
	<rect x="40" y="216" style="fill:#E2E4E6;" width="432" height="64"/>
	<path style="fill:#D0D7DA;" d="M455,256H57c-0.552,0-1-0.448-1-1v-14c0-0.552,0.448-1,1-1h398c0.552,0,1,0.448,1,1v14   C456,255.552,455.552,256,455,256z"/>
	<path style="fill:#3F556B;" d="M48,328h280c4.418,0,8,3.582,8,8l0,0c0,4.418-3.582,8-8,8H48c-4.418,0-8-3.582-8-8l0,0   C40,331.582,43.582,328,48,328z"/>
	<path style="fill:#3F556B;" d="M328,376H48c-4.418,0-8-3.582-8-8l0,0c0-4.418,3.582-8,8-8h280c4.418,0,8,3.582,8,8l0,0   C336,372.418,332.418,376,328,376z"/>
	<path style="fill:#3F556B;" d="M328,408H48c-4.418,0-8-3.582-8-8l0,0c0-4.418,3.582-8,8-8h280c4.418,0,8,3.582,8,8l0,0   C336,404.418,332.418,408,328,408z"/>
	<path style="fill:#3F556B;" d="M328,440H48c-4.418,0-8-3.582-8-8l0,0c0-4.418,3.582-8,8-8h280c4.418,0,8,3.582,8,8l0,0   C336,436.418,332.418,440,328,440z"/>
	<path style="fill:#D84126;" d="M296,280h-16v-40c0-4.418,3.582-8,8-8l0,0c4.418,0,8,3.582,8,8V280z"/>
	<path style="fill:#3F556B;" d="M496,208v256c0,8.837-7.163,16-16,16H32c-8.837,0-16,7.163-16,16l0,0h376h16h88   c8.837,0,16-7.163,16-16V192l0,0C503.163,192,496,199.163,496,208z"/>
	<path style="fill:#8EADBE;" d="M424,329.469V328c0-4.418-3.582-8-8-8s-8,3.582-8,8v1.469c-9.3,3.304-16,12.089-16,22.531   c0,13.266,10.746,24,24,24c13.254,0,24-10.734,24-24C440,341.558,433.3,332.773,424,329.469z"/>
	<path style="fill:#3F556B;" d="M416,440c-11.885,0-21.685-8.652-23.597-20c-0.22,1.307-0.403,2.63-0.403,4   c0,13.266,10.746,24,24,24c13.254,0,24-10.734,24-24c0-1.37-0.183-2.693-0.403-4C437.685,431.348,427.885,440,416,440z"/>
	<path style="fill:#3F556B;" d="M416,376c-11.885,0-21.685-8.652-23.597-20c-0.22,1.307-0.403,2.63-0.403,4   c0,13.266,10.746,24,24,24c13.254,0,24-10.734,24-24c0-1.37-0.183-2.693-0.403-4C437.685,367.348,427.885,376,416,376z"/>
	<path style="fill:#8EADBE;" d="M438.627,404.686c3.124-3.124,3.124-8.189,0-11.313c-3.124-3.125-8.189-3.125-11.314,0l-1.025,1.025   C423.16,392.905,419.698,392,416,392c-13.254,0-24,10.735-24,24c0,13.266,10.746,24,24,24c13.254,0,24-10.734,24-24   c0-3.7-0.905-7.161-2.398-10.289L438.627,404.686z"/>
	<path style="fill:#35495C;" d="M328,328H48c-4.418,0-8,3.582-8,8h296C336,331.582,332.418,328,328,328z"/>
	<path style="fill:#35495C;" d="M328,360H48c-4.418,0-8,3.582-8,8h296C336,363.582,332.418,360,328,360z"/>
	<path style="fill:#35495C;" d="M328,392H48c-4.418,0-8,3.582-8,8h296C336,395.582,332.418,392,328,392z"/>
	<path style="fill:#35495C;" d="M328,424H48c-4.418,0-8,3.582-8,8h296C336,427.582,332.418,424,328,424z"/>
	<rect x="40" y="216" style="fill:#BDC7CB;" width="432" height="8"/>
	<path style="fill:#B1C3D0;" d="M416.966,174.567c-5.357-3.312-11.401-7.047-17.995-11.123   c-13.222-8.096-28.496-17.782-45.133-27.727c-16.672-9.889-34.322-20.651-52.212-31.031c-17.95-10.284-35.736-20.829-52.757-30.164   c-16.896-9.533-32.814-18.195-46.522-25.518c-14.409-7.723-26.302-13.842-34.443-17.963C167.398,22.66,160.508,16,152,16   c-8.836,0-16,7.163-16,16c0,8.836,7.164,16,16,16c2.157,0,4.208-0.439,6.085-1.213c7.243,5.548,17.896,13.597,31.068,23.208   c12.542,9.178,27.249,19.766,43.166,30.857c15.792,11.29,33.006,22.745,50.056,34.461c17.11,11.62,34.46,22.858,50.601,33.594   c3.677,2.428,7.295,4.781,10.869,7.093h75.473C418.542,175.521,417.789,175.04,416.966,174.567z"/>
</g>
<g>
</g>
<g>
</g>
<g>
</g>
<g>
</g>
<g>
</g>
<g>
</g>
<g>
</g>
<g>
</g>
<g>
</g>
<g>
</g>
<g>
</g>
<g>
</g>
<g>
</g>
<g>
</g>
<g>
</g>
</svg>