<?xml version="1.0" encoding="iso-8859-1"?>
<!-- Generator: Adobe Illustrator 19.0.0, SVG Export Plug-In . SVG Version: 6.00 Build 0)  -->
<svg version="1.1" id="Layer_1" xmlns="http://www.w3.org/2000/svg" xmlns:xlink="http://www.w3.org/1999/xlink" x="0px" y="0px"
	 viewBox="0 0 494.728 494.728" style="enable-background:new 0 0 494.728 494.728;" xml:space="preserve">
<g>
	<path style="fill:#FFF8EF;" d="M135.364,215.528v24h-72v-11.2c0-7.2,5.6-12.8,12.8-12.8h11.2v16h16v-16H135.364z"/>
	<path style="fill:#FFF8EF;" d="M183.364,255.528v24h-107.2c-7.2,0-12.8-5.6-12.8-12.8v-11.2H183.364z"/>
	<path style="fill:#FFF8EF;" d="M431.364,255.528v11.2c0,7.2-5.6,12.8-12.8,12.8h-219.2v-24h32v16h16v-16H431.364z"/>
	<path style="fill:#FFF8EF;" d="M431.364,228.328v11.2h-88v-24h32v8h16v-8h27.2C425.764,215.528,431.364,221.128,431.364,228.328z"
		/>
	<polygon style="fill:#FFF8EF;" points="327.364,215.528 327.364,239.528 247.364,239.528 247.364,215.528 279.364,215.528 
		279.364,231.528 295.364,231.528 295.364,215.528 	"/>
</g>
<path style="fill:#42210B;" d="M479.364,192.328v253.6c0,13.6-10.4,24-24,24.8v16c0,4-4,8-8,8h-48c-4,0-8-4-8-8v-16h-288v16
	c0,4-3.2,8-8,8h-48c-4.8,0-8-4-8-8v-16c-13.6-0.8-24-11.2-24-24.8v-253.6c0-13.6,11.2-24.8,24.8-24.8h37.6l318.4-124l-4-8
	c-2.4-4,0-8.8,3.2-10.4l48-24c4-2.4,8.8-0.8,10.4,3.2l16,32c2.4,4,0,8.8-3.2,10.4l-48,24c-0.8,0.8-1.6,0.8-3.2,0.8
	c-3.2,0-5.6-1.6-7.2-4.8l-4.8-9.6l-281.6,110.4h332.8C468.164,167.528,479.364,178.728,479.364,192.328z M463.364,446.728v-254.4
	c0-4.8-4-8.8-8.8-8.8h-414.4c-4.8,0-8.8,4-8.8,8.8v253.6c0,5.6,4,9.6,8.8,9.6h7.2h48h304h48h7.2
	C459.364,455.528,463.364,451.528,463.364,446.728z M452.964,36.328l-8.8-17.6l-33.6,16.8l8.8,17.6L452.964,36.328z
	 M439.364,479.528v-8h-32v8H439.364z M87.364,479.528v-8h-32v8H87.364z"/>
<path style="fill:#B37D4D;" d="M463.364,192.328v253.6c0,4.8-4,8.8-8.8,8.8h-7.2h-48h-304h-48h-7.2c-4.8,0.8-8.8-3.2-8.8-8v-254.4
	c0-4.8,4-8.8,8.8-8.8h413.6C459.364,183.528,463.364,187.528,463.364,192.328z M447.364,266.728v-38.4c0-16-12.8-28.8-28.8-28.8
	h-342.4c-16,0-28.8,12.8-28.8,28.8v38.4c0,16,12.8,28.8,28.8,28.8h342.4C434.564,295.528,447.364,282.728,447.364,266.728z
	 M431.364,375.528c0-40-32-72-72-72s-72,32-72,72s32,72,72,72S431.364,415.528,431.364,375.528z M263.364,431.528v-112c0-4-4-8-8-8
	h-200c-4.8,0-8,4-8,8v112c0,4,3.2,8,8,8h200C259.364,439.528,263.364,435.528,263.364,431.528z"/>
<rect x="412.374" y="26.071" transform="matrix(-0.8936 0.4488 -0.4488 -0.8936 832.6696 -125.2111)" style="fill:#FF7D00;" width="37.599" height="19.999"/>
<path style="fill:#42210B;" d="M447.364,228.328v38.4c0,16-12.8,28.8-28.8,28.8h-342.4c-16,0-28.8-12.8-28.8-28.8v-38.4
	c0-16,12.8-28.8,28.8-28.8h342.4C434.564,199.528,447.364,212.328,447.364,228.328z M431.364,266.728v-11.2h-184v16h-16v-16h-32v24
	h219.2C425.764,279.528,431.364,273.928,431.364,266.728z M431.364,239.528v-11.2c0-7.2-5.6-12.8-12.8-12.8h-27.2v8h-16v-8h-32v24
	H431.364z M327.364,239.528v-24h-32v16h-16v-16h-32v24H327.364z M231.364,239.528v-24h-32v24H231.364z M183.364,279.528v-24h-120
	v11.2c0,7.2,5.6,12.8,12.8,12.8H183.364z M183.364,239.528v-24h-32v24H183.364z M135.364,239.528v-24h-32v16h-16v-16h-11.2
	c-7.2,0-12.8,5.6-12.8,12.8v11.2H135.364z"/>
<rect x="407.364" y="471.528" style="fill:#FF7D00;" width="32" height="8"/>
<path style="fill:#42210B;" d="M359.364,303.528c40,0,72,32,72,72s-32,72-72,72s-72-32-72-72S319.364,303.528,359.364,303.528z
	 M415.364,375.528c0-31.2-24.8-56-56-56s-56,24.8-56,56s24.8,56,56,56S415.364,406.728,415.364,375.528z"/>
<path style="fill:#FF7D00;" d="M359.364,319.528c31.2,0,56,24.8,56,56s-24.8,56-56,56s-56-24.8-56-56
	S328.164,319.528,359.364,319.528z M399.364,375.528c0-19.2-13.6-35.2-32-39.2v-8.8h-16v8.8c-18.4,4-32,20-32,39.2
	c0,22.4,17.6,40,40,40S399.364,397.928,399.364,375.528z"/>
<g>
	<path style="fill:#42210B;" d="M367.364,336.328c18.4,4,32,20,32,39.2c0,22.4-17.6,40-40,40s-40-17.6-40-40
		c0-19.2,13.6-35.2,32-39.2v-8.8h16V336.328z M359.364,399.528c13.6,0,24-10.4,24-24c0-10.4-6.4-19.2-16-22.4v14.4h-16v-14.4
		c-9.6,3.2-16,12-16,22.4C335.364,389.128,345.764,399.528,359.364,399.528z"/>
	<path style="fill:#42210B;" d="M263.364,319.528v112c0,4-4,8-8,8h-200c-4.8,0-8-4-8-8v-112c0-4,3.2-8,8-8h200
		C259.364,311.528,263.364,315.528,263.364,319.528z M247.364,423.528v-96h-184v96H247.364z"/>
</g>
<path style="fill:#FF7D00;" d="M247.364,327.528v96h-184v-96H247.364z M239.364,415.528v-16h-24v16H239.364z M239.364,383.528v-16
	h-24v16H239.364z M239.364,351.528v-16h-24v16H239.364z M191.364,415.528v-16h-24v16H191.364z M191.364,383.528v-16h-24v16H191.364z
	 M191.364,351.528v-16h-24v16H191.364z M143.364,415.528v-16h-24v16H143.364z M143.364,383.528v-16h-24v16H143.364z
	 M143.364,351.528v-16h-24v16H143.364z M95.364,415.528v-16h-24v16H95.364z M95.364,383.528v-16h-24v16H95.364z M95.364,351.528v-16
	h-24v16H95.364z"/>
<g>
	<rect x="215.364" y="399.528" style="fill:#42210B;" width="24" height="16"/>
	<rect x="215.364" y="367.528" style="fill:#42210B;" width="24" height="16"/>
	<rect x="215.364" y="335.528" style="fill:#42210B;" width="24" height="16"/>
	<rect x="167.364" y="399.528" style="fill:#42210B;" width="24" height="16"/>
	<rect x="167.364" y="367.528" style="fill:#42210B;" width="24" height="16"/>
	<rect x="167.364" y="335.528" style="fill:#42210B;" width="24" height="16"/>
	<rect x="119.364" y="399.528" style="fill:#42210B;" width="24" height="16"/>
	<rect x="119.364" y="367.528" style="fill:#42210B;" width="24" height="16"/>
	<rect x="119.364" y="335.528" style="fill:#42210B;" width="24" height="16"/>
	<rect x="71.364" y="399.528" style="fill:#42210B;" width="24" height="16"/>
	<rect x="71.364" y="367.528" style="fill:#42210B;" width="24" height="16"/>
	<rect x="71.364" y="335.528" style="fill:#42210B;" width="24" height="16"/>
</g>
<rect x="55.364" y="471.528" style="fill:#FF7D00;" width="32" height="8"/>
<path style="fill:#FF6600;" d="M239.364,327.528v8v11.2v4.8l0,0c-0.8,5.6-1.6,11.2-3.2,16h3.2v16h-11.2c-8.8,13.6-21.6,24-36.8,28.8
	v3.2h-20.8h-3.2h-24h-24h-24h-24h-8v8h184v-96H239.364z M239.364,415.528h-24v-16h24V415.528z"/>
<path style="fill:#E4C6A1;" d="M440.964,191.528h-387.2c-8,0-14.4,6.4-14.4,14.4v226.4c0,8,6.4,14.4,14.4,14.4h305.6
	c-40,0-72-32-72-72s32-72,72-72s72,32,72,72s-32,72-72,72h81.6c8,0,14.4-6.4,14.4-14.4v-226.4
	C455.364,197.928,448.964,191.528,440.964,191.528z M263.364,431.528c0,4-4,8-8,8h-200c-4,0-8-4-8-8v-112c0-4,4-8,8-8h200
	c4,0,8,4,8,8V431.528z M447.364,266.728c0,16-12.8,28.8-28.8,28.8h-342.4c-16,0-28.8-12.8-28.8-28.8v-38.4c0-16,12.8-28.8,28.8-28.8
	h342.4c16,0,28.8,12.8,28.8,28.8V266.728z"/>
<g>
</g>
<g>
</g>
<g>
</g>
<g>
</g>
<g>
</g>
<g>
</g>
<g>
</g>
<g>
</g>
<g>
</g>
<g>
</g>
<g>
</g>
<g>
</g>
<g>
</g>
<g>
</g>
<g>
</g>
</svg>
