<?xml version="1.0" encoding="utf-8"?>
<!-- Svg Vector Icons : http://www.onlinewebfonts.com/icon -->
<!DOCTYPE svg PUBLIC "-//W3C//DTD SVG 1.1//EN" "http://www.w3.org/Graphics/SVG/1.1/DTD/svg11.dtd">
<svg version="1.1" xmlns="http://www.w3.org/2000/svg" xmlns:xlink="http://www.w3.org/1999/xlink" x="0px" y="0px" viewBox="0 0 1000 1000" enable-background="new 0 0 1000 1000" xml:space="preserve">
<metadata> Svg Vector Icons : http://www.onlinewebfonts.com/icon </metadata>
<g><g transform="translate(0.000000,511.000000) scale(0.100000,-0.100000)"><path d="M113.5,4423.7c-7.7-5.8-13.5-1530.6-13.5-3388.6V-2340h1675c922.2,0,1675-5.8,1675-13.5c0-9.6-125.1-421.6-277.2-920.3s-273.4-906.8-271.5-910.7c3.9-5.8,2882.2-9.6,3015.1-5.8c27,1.9,13.5,63.5-80.8,373.5c-63.6,202.2-127.1,415.9-144.4,471.7c-28.9,96.3-36.6,104-148.3,161.7c-350.4,175.2-710.5,496.7-926.1,822.1c-167.5,254.1-329.2,631.5-367.7,864.5l-13.5,80.9H2629.9H1024.2l3.9,2460.6l5.8,2458.7l3330.8,3.9c1832.9,3.8,3359.7,0,3394.4-5.8l61.6-9.6V2352.1l1.9-1139.8l190.6-123.2c223.3-144.4,437.1-335,579.5-517.9c55.8-71.2,107.8-136.7,117.5-146.3c7.7-11.6,15.4,887.6,15.4,1996.6v2015.8H4426.2C2060,4437.2,119.3,4431.4,113.5,4423.7z"/><path d="M6318.9,858c-381.2-82.8-704.7-263.8-974.2-544.9C4973-73.9,4799.8-534,4822.9-1069.3c21.2-494.8,200.2-901.1,550.7-1253.4c242.6-242.6,521.8-402.4,868.3-492.9c258-69.3,625.7-71.2,874.1-7.7c175.2,46.2,358.1,115.5,464,179.1l57.8,34.6l802.9-802.9l804.8-804.8l327.3,327.3c179.1,179.1,327.3,335,327.3,346.6c0,9.6-356.2,375.4-789.4,808.6l-789.4,789.4l65.5,136.7c36.6,75.1,90.5,211.8,119.4,308.1c50.1,157.9,53.9,198.3,53.9,508.3c1.9,273.4-5.8,362-34.7,471.7C8375.1,37.8,8005.4,478.7,7485.6,721.3c-242.6,113.6-439,157.9-743.2,165.6C6540.3,892.7,6445.9,886.9,6318.9,858z M7104.4,213C7449,93.6,7709-145.1,7857.2-476.3c78.9-175.2,105.9-308.1,105.9-516c-1.9-352.3-113.6-625.7-363.9-877.9c-263.8-265.7-533.3-381.2-895.3-381.2c-242.6,0-390.8,36.6-604.6,148.3c-177.1,92.4-387,290.7-489,460.2c-159.8,267.6-217.6,625.7-150.2,928c102,456.3,464,831.7,920.3,955C6580.7,295.8,6906.1,282.3,7104.4,213z"/></g></g>
</svg>