<?xml version="1.0" encoding="utf-8"?>
<!-- Svg Vector Icons : http://www.onlinewebfonts.com/icon -->
<!DOCTYPE svg PUBLIC "-//W3C//DTD SVG 1.1//EN" "http://www.w3.org/Graphics/SVG/1.1/DTD/svg11.dtd">
<svg version="1.1" xmlns="http://www.w3.org/2000/svg" xmlns:xlink="http://www.w3.org/1999/xlink" x="0px" y="0px" viewBox="0 0 1000 1000" enable-background="new 0 0 1000 1000" xml:space="preserve">
<metadata> Svg Vector Icons : http://www.onlinewebfonts.com/icon </metadata>
<g><g><circle cx="418.2" cy="472.4" r="31.7"/><path d="M418.2,315.7c-86.4,0-156.7,70.3-156.7,156.7c0,86.4,70.3,156.7,156.7,156.7c86.4,0,156.7-70.3,156.7-156.7S504.6,315.7,418.2,315.7z M418.2,591.3c-65.7,0-118.9-53.2-118.9-118.9c0-65.7,53.2-118.9,118.9-118.9c65.7,0,118.9,53.2,118.9,118.9C537.1,538.1,483.9,591.3,418.2,591.3z"/><path d="M986.7,669c-25.6,5.7-67.4-32.4-86-81.4c-18.6-49-32.9-164.9-124.4-144.5c-32.4,7.2-53.4,15.8-66.9,23.7c-18.1,10.6-21.2,43.8-16.7,64.3l29.6,133.1c4.6,20.5-5.2,32.4-22.4,31.7c-10.2-0.4-20.6,0.4-31,2.7c-64.7,14.4-105.5,78.5-91,143.2c14.4,64.7,78.5,105.4,143.2,91c64.7-14.4,105.5-78.5,91.1-143.2c-0.4-1.7-0.8-3.3-1.3-4.9c-0.8-2.7-5.1-21.5-9.6-42c-8.5-38.4-21.8-98.2-30.3-136.7c-4.6-20.5,11.1-34.1,18.6-14.6c8.3,21.6,14.5,57.1,42,99.2C881.9,767.9,1012.3,663.3,986.7,669z"/><path d="M661.4,665.2c8.3-1.9,16.8-3,25.3-3.5l-27.4-123.2c-6.5-29.1-3.1-80.1,32.7-101.2c19.1-11.2,45-20.5,76.9-27.6c9.5-2.1,18.9-3.2,27.8-3.2c9,0,17.1,1.2,24.8,3C791.3,213.9,622.2,64.2,418.2,64.2C192.8,64.2,10,247,10,472.4s182.8,408.2,408.2,408.2c45.1,0,88.4-7.4,129-20.9c-1-3.4-2-6.9-2.8-10.5C525.9,766.3,578.4,683.7,661.4,665.2z M231.6,472.4c0-102.9,83.7-186.6,186.6-186.6c102.9,0,186.6,83.7,186.6,186.6c0,102.9-83.7,186.6-186.6,186.6C315.3,659,231.6,575.3,231.6,472.4z"/></g><g></g><g></g><g></g><g></g><g></g><g></g><g></g><g></g><g></g><g></g><g></g><g></g><g></g><g></g><g></g></g>
</svg>